# xmcd
#
# Track frame offsets:
#	150
#	12489
#	30440
#	40144
#	45671
#	53807
#	68556
#	78545
#	90729
#	102256
#	110519
#	116419
#	129228
#	135972
#	148396
#	161702
#	176538
#	190024
#	200301
#	211498
#	224929
#	234506
#	243220
#	252244
#	265038
#	274265
#	284621
#	292975
#	303512
#	316838
#	321032
#
# Disc length: 4486 seconds
#
# Revision: 1
# Processed by: cddbd v1.5.2PL0 Copyright (c) Steve Scherf et al.
# Submitted via: audiograbber 1.80
#
DISCID=c511841f
DTITLE=Flatt and Scruggs - At Carnegie Hall
DYEAR=1900
DGENRE=
TTITLE0=Salty Doc Blues
TTITLE1=Durham's Reel
TTITLE2=Down The Road
TTITLE3=Rainbow
TTITLE4=Big Ball In Brooklyn
TTITLE5=Flint Hill Special
TTITLE6=Dig A Hole In The Meadow
TTITLE7=I Hung My Head and Cried
TTITLE8=Hot Corn,Cold Corn
TTITLE9=Little Darlin' Pal Of Mine
TTITLE10=You Can't Stop Me-From Dreaming
TTITLE11=Footprints in the Snow
TTITLE12=The Martha White Theme
TTITLE13=I Wonder Where You Are Tonight
TTITLE14=Ballad of Jed Clampett
TTITLE15=Old MacDonald Had A Farm
TTITLE16=He Will Set Your Field on Fire
TTITLE17=Let The Church Roll On
TTITLE18=Wildwood Flower
TTITLE19=Hear That Whistle Blow(A Hundred Miles)
TTITLE20=Fiddle and Banjo
TTITLE21=Old Leather Britches
TTITLE22=Yonder Stands Little Magie
TTITLE23=Reuben
TTITLE24=Mama Blues
TTITLE25=I Know What It Means To Be Lonesome
TTITLE26=Foggy Mountain Rock
TTITLE27=Take This Hammer
TTITLE28=McKinkley's Gone
TTITLE29=Roll In My Sweet Baby's Arms
TTITLE30=Gotta Travel On
EXTD=
EXTT0=
EXTT1=
EXTT2=
EXTT3=
EXTT4=
EXTT5=
EXTT6=
EXTT7=
EXTT8=
EXTT9=
EXTT10=
EXTT11=
EXTT12=
EXTT13=
EXTT14=
EXTT15=
EXTT16=
EXTT17=
EXTT18=
EXTT19=
EXTT20=
EXTT21=
EXTT22=
EXTT23=
EXTT24=
EXTT25=
EXTT26=
EXTT27=
EXTT28=
EXTT29=
EXTT30=
PLAYORDER=
